<svg xmlns="http://www.w3.org/2000/svg" viewBox="0 0 3648 1080"><defs><style>.cls-1{fill:#fff;}.cls-2{fill:#d17b46;}.cls-3{font-size:463px;fill:#332729;font-family:Roboto-Light, Roboto;letter-spacing:0.15em;}.cls-4,.cls-5,.cls-6{font-size:325px;}.cls-4{letter-spacing:0.15em;}.cls-5{letter-spacing:0.14em;}.cls-6{letter-spacing:0.15em;}.cls-7{font-size:134px;fill:#6e4d12;font-family:Meiryo, Meiryo;letter-spacing:0.74em;}</style></defs><title>Sardonyx</title><g id="Layer_5" data-name="Layer 5"><rect class="cls-1" width="3648" height="1080"/></g><g id="Layer_1" data-name="Layer 1"><path class="cls-2" d="M874.5,795.5l-232,118L743,796Z"/><path class="cls-2" d="M1103.54,298.49l-388.62,433-15.63-14L1083.66,289.2A98.8,98.8,0,0,0,1052,284h-71.7l-343,382.73-15.64-14L952.07,284H568.51c-54.79,0-99.61,44.82-99.61,99.6V696.4a95.26,95.26,0,0,0,10.6,44l360.18-401.9,15.64,14L491.6,758.35c16.23,19,40.4,32.41,70,36.4L918.7,398.47l15.6,14.06L588.8,796H1064c42.78,0,87.6-44.82,87.6-99.6V383.6A99.78,99.78,0,0,0,1103.54,298.49Z"/></g><g id="Layer_2" data-name="Layer 2"><text class="cls-3" transform="translate(1361.18 617.4) scale(1.04 1)">S<tspan class="cls-4" x="343.68" y="-26">a</tspan><tspan class="cls-5" x="566.51" y="-26">r</tspan><tspan class="cls-6" x="721.59" y="-26">donyx</tspan></text></g><g id="Layer_3" data-name="Layer 3"><text class="cls-7" transform="translate(1372 788) scale(0.88 1)">サードニクス</text></g></svg>