<svg id="Layer_3" data-name="Layer 3" xmlns="http://www.w3.org/2000/svg" viewBox="0 0 1024 1024"><defs><style>.cls-1{fill:#d17b46;}</style></defs><title>Icon</title><path class="cls-1" d="M576.5,767.5l-232,118L445,768Z"/><path class="cls-1" d="M805.54,270.49l-388.62,433-15.63-14L785.66,261.2A98.8,98.8,0,0,0,754,256h-71.7l-343,382.73-15.64-14L654.07,256H270.51c-54.79,0-99.61,44.82-99.61,99.6V668.4a95.26,95.26,0,0,0,10.6,44l360.18-401.9,15.64,14L193.6,730.35c16.23,19,40.4,32.41,70,36.4L620.7,370.47l15.6,14.06L290.8,768H766c42.78,0,87.6-44.82,87.6-99.6V355.6A99.78,99.78,0,0,0,805.54,270.49Z"/></svg>