<svg xmlns="http://www.w3.org/2000/svg" viewBox="0 0 3648 1080"><defs><style>.cls-1{fill:#fff;}.cls-2{fill:#d17b46;}.cls-3{fill:#332729;}.cls-4{fill:#6e4d12;}</style></defs><title>Sardonyx_white</title><g id="Layer_5" data-name="Layer 5"><rect class="cls-1" width="3648" height="1080"/></g><g id="Layer_1" data-name="Layer 1"><path class="cls-2" d="M874.5,795.5l-232,118L743,796Z"/><path class="cls-2" d="M1103.54,298.49l-388.62,433-15.63-14L1083.66,289.2A98.8,98.8,0,0,0,1052,284h-71.7l-343,382.73-15.64-14L952.07,284H568.51c-54.79,0-99.61,44.82-99.61,99.6V696.4a95.26,95.26,0,0,0,10.6,44l360.18-401.9,15.64,14L491.6,758.35c16.23,19,40.4,32.41,70,36.4L918.7,398.47l15.6,14.06L588.8,796H1064c42.78,0,87.6-44.82,87.6-99.6V383.6A99.78,99.78,0,0,0,1103.54,298.49Z"/></g><g id="Layer_2" data-name="Layer 2"><path class="cls-3" d="M1598.18,536.47q0-27.36-20-43.3t-73.12-30.29q-53.14-14.36-77.59-31.31-34.8-24-34.8-62.85,0-37.75,32.33-61.38t82.65-23.62q34.08,0,61,12.66t41.73,35.26a90,90,0,0,1,14.81,50.42h-29.15q0-33.78-24-54.31t-64.42-20.52q-39.27,0-62.54,16.87t-23.28,44q0,25.13,20.92,41t67,28q46.08,12.11,69.83,25.11t35.74,31.09q12,18.09,12,42.72,0,38.9-32.33,62.4t-85.23,23.51q-36.21,0-66.42-12.43t-45.85-34.82q-15.63-22.38-15.63-51.32h28.92q0,34.83,27,54.94t71.94,20.12q40,0,64.19-16.95T1598.18,536.47Z"/><path class="cls-3" d="M1857.07,591.4q-3-8.08-3.79-24a68.6,68.6,0,0,1-26.49,20.07,83.86,83.86,0,0,1-34.08,7.06q-25.76,0-41.68-13.8t-15.92-34.91q0-25.08,21.7-39.68t60.49-14.6h35.81V472.06q0-18.4-11.8-29t-34.41-10.55q-20.64,0-34.16,10.16t-13.54,24.44l-19.8-.16q0-20.48,19.8-35.47t48.69-15q29.86,0,47.12,14.36T1872.75,471V552.2q0,24.91,5.45,37.3v1.9Zm-62-13.65q19.8,0,35.4-9.2a54.92,54.92,0,0,0,22.69-24.6V506.18h-35.32q-29.54.33-46.21,10.4t-16.67,27.69a30.21,30.21,0,0,0,11.14,24Q1777.2,577.76,1795,577.75Z"/><path class="cls-3" d="M2058.62,435.88a76.8,76.8,0,0,0-13.37-1.11q-18.49,0-31.28,9.92t-18.23,28.8V591.4H1976.1V419.7h19.31l.33,27.29q15.67-30.47,50.33-30.47,8.25,0,13,2.07Z"/><path class="cls-3" d="M2129.45,504q0-40,18.57-63.71t50.42-23.73q36.14,0,55.12,27.46V347.65h19.64V591.4h-18.48l-.83-22.85q-19,26-55.78,26-30.87,0-49.76-23.88t-18.9-64.51Zm20,3.33q0,32.85,13.7,51.82t38.62,19q36.47,0,51.82-30.94V466.51Q2238.22,433,2202.07,433q-24.93,0-38.79,18.8T2149.42,507.29Z"/><path class="cls-3" d="M2365,503q0-24.75,10-44.59a74.2,74.2,0,0,1,28.22-30.87q18.24-11,41.34-11,35.65,0,57.77,24t22.11,63.72v4q0,24.91-10,44.83a72.66,72.66,0,0,1-28.14,30.7q-18.16,10.8-41.43,10.79-35.48,0-57.68-24T2365,506.82Zm19.8,5.24q0,30.78,16.59,50.54t43.48,19.76q26.74,0,43.33-19.76t16.58-52.13V503a84.44,84.44,0,0,0-7.59-36q-7.59-16.35-21.29-25.31t-31.36-9q-26.4,0-43.07,19.92t-16.67,52.13Z"/><path class="cls-3" d="M2634.7,419.7l.66,29.35a69.68,69.68,0,0,1,25.09-24.2,67.26,67.26,0,0,1,33.17-8.33q28.71,0,42.75,15.55t14.19,46.66V591.4h-19.64V478.57q-.16-23-10.15-34.28T2688.83,433a51.17,51.17,0,0,0-32.43,11q-14.1,11-20.87,29.75V591.4h-19.64V419.7Z"/><path class="cls-3" d="M2908.86,564.11,2961,419.7h21.29l-76.25,200.9-4,8.89q-14.7,31.26-45.39,31.26a57.47,57.47,0,0,1-15.18-2.22l-.17-15.71,10.24.95q14.52,0,23.51-6.9t15.27-23.73l8.75-23.17L2831.79,419.7h21.62Z"/><path class="cls-3" d="M3119.65,489.36l48.19-69.66h23.44L3130.71,504l63.21,87.44h-23.27l-50.83-72.68L3069,591.4h-23.28L3108.76,504l-60.57-84.26h23.27Z"/></g><g id="Layer_3" data-name="Layer 3"><path class="cls-4" d="M1408.33,753.58h-10v-33.1h-22.8V711h22.8V683.38h10V711h47.73V681.48h10V711h21.71v9.49h-21.71v15.83q0,54.83-66.62,57.32l-1.9-9.75q32.25-1.3,45.38-14t13.12-33.34V720.48h-47.73Z"/><path class="cls-4" d="M1683.12,744.69h-95.23V735h95.23Z"/><path class="cls-4" d="M1891.7,747.3l-6,9.1A205.55,205.55,0,0,0,1857,738.54a212.64,212.64,0,0,0-29.66-13.22v69.42h-10.25V680.17h10.37v35.07A267.74,267.74,0,0,1,1891.7,747.3Zm-22.06-41.55-6.62,3.34a151.07,151.07,0,0,0-8.35-18.38l6.22-3.21A141.19,141.19,0,0,1,1869.64,705.75Zm16.7-4-6.56,3.07a128.93,128.93,0,0,0-8.29-18.06l6-3.2A165.75,165.75,0,0,1,1886.34,701.7Z"/><path class="cls-4" d="M2099.7,785.06H1992V774.59H2099.7Zm-7.2-77.21h-92.13v-9.62h92.13Z"/><path class="cls-4" d="M2251.21,682.4a97.5,97.5,0,0,1-4.78,13.41h55.85l-.46,9.09q-.17,3.93-2.93,15.25a147.73,147.73,0,0,1-4.41,14.59,108.65,108.65,0,0,1-6.88,15.18,83.22,83.22,0,0,1-10.28,14.79,80.35,80.35,0,0,1-14,12.66,95.3,95.3,0,0,1-18.51,10.17,131.55,131.55,0,0,1-22.83,7.2l-3.39-9.42q33.21-7.34,50.58-27t21.79-52.93h-49.06a125.67,125.67,0,0,1-16.84,24,106.33,106.33,0,0,1-21,18.55l-5.42-7.27a107.31,107.31,0,0,0,26.6-28q11.36-17,15.38-31.83Z"/><path class="cls-4" d="M2512.07,787l-8.18,7.2q-15.78-18.45-43.12-44.62-28.62,31.28-56.95,44.1l-4.37-8.31q23.72-11,47.24-34.84t33-52.12H2414v-9.09H2490l2.36,2.42a150.3,150.3,0,0,1-25.86,50.64Q2484.15,758,2512.07,787Z"/></g></svg>